<!-- @formatter:off -->
<svg xmlns="http://www.w3.org/2000/svg" >
    <defs>
        <svg aria-hidden="true" fill="currentColor" id="bars-2" viewBox="0 0 24 24" xmlns="http://www.w3.org/2000/svg">
            <path clip-rule="evenodd" d="M3 9a.75.75 0 01.75-.75h16.5a.75.75 0 010 1.5H3.75A.75.75 0 013 9zm0 6.75a.75.75 0 01.75-.75h16.5a.75.75 0 010 1.5H3.75a.75.75 0 01-.75-.75z" fill-rule="evenodd"/>
        </svg>
        <svg aria-hidden="true" fill="currentColor" id="bolt" viewBox="0 0 24 24" xmlns="http://www.w3.org/2000/svg">
            <path clip-rule="evenodd" d="M14.615 1.595a.75.75 0 01.359.852L12.982 9.75h7.268a.75.75 0 01.548 1.262l-10.5 11.25a.75.75 0 01-1.272-.71l1.992-7.302H3.75a.75.75 0 01-.548-1.262l10.5-11.25a.75.75 0 01.913-.143z" fill-rule="evenodd"/>
        </svg>
        <svg aria-hidden="true" fill="currentColor" id="check-circle" viewBox="0 0 24 24" xmlns="http://www.w3.org/2000/svg">
            <path clip-rule="evenodd" d="M2.25 12c0-5.385 4.365-9.75 9.75-9.75s9.75 4.365 9.75 9.75-4.365 9.75-9.75 9.75S2.25 17.385 2.25 12zm13.36-1.814a.75.75 0 10-1.22-.872l-3.236 4.53L9.53 12.22a.75.75 0 00-1.06 1.06l2.25 2.25a.75.75 0 001.14-.094l3.75-5.25z" fill-rule="evenodd"/>
        </svg>
        <svg aria-hidden="true" fill="currentColor" id="chevron-right" viewBox="0 0 24 24" xmlns="http://www.w3.org/2000/svg">
            <path clip-rule="evenodd" d="M16.28 11.47a.75.75 0 010 1.06l-7.5 7.5a.75.75 0 01-1.06-1.06L14.69 12 7.72 5.03a.75.75 0 011.06-1.06l7.5 7.5z" fill-rule="evenodd"/>
        </svg>
        <svg aria-hidden="true" fill="currentColor" id="cog-8-tooth" viewBox="0 0 24 24" xmlns="http://www.w3.org/2000/svg">
            <path clip-rule="evenodd" d="M11.828 2.25c-.916 0-1.699.663-1.85 1.567l-.091.549a.798.798 0 01-.517.608 7.45 7.45 0 00-.478.198.798.798 0 01-.796-.064l-.453-.324a1.875 1.875 0 00-2.416.2l-.243.243a1.875 1.875 0 00-.2 2.416l.324.453a.798.798 0 01.064.796 7.448 7.448 0 00-.198.478.798.798 0 01-.608.517l-.55.092a1.875 1.875 0 00-1.566 1.849v.344c0 .916.663 1.699 1.567 1.85l.549.091c.281.047.508.25.608.517.06.162.127.321.198.478a.798.798 0 01-.064.796l-.324.453a1.875 1.875 0 00.2 2.416l.243.243c.648.648 1.67.733 2.416.2l.453-.324a.798.798 0 01.796-.064c.157.071.316.137.478.198.267.1.47.327.517.608l.092.55c.15.903.932 1.566 1.849 1.566h.344c.916 0 1.699-.663 1.85-1.567l.091-.549a.798.798 0 01.517-.608 7.52 7.52 0 00.478-.198.798.798 0 01.796.064l.453.324a1.875 1.875 0 002.416-.2l.243-.243c.648-.648.733-1.67.2-2.416l-.324-.453a.798.798 0 01-.064-.796c.071-.157.137-.316.198-.478.1-.267.327-.47.608-.517l.55-.091a1.875 1.875 0 001.566-1.85v-.344c0-.916-.663-1.699-1.567-1.85l-.549-.091a.798.798 0 01-.608-.517 7.507 7.507 0 00-.198-.478.798.798 0 01.064-.796l.324-.453a1.875 1.875 0 00-.2-2.416l-.243-.243a1.875 1.875 0 00-2.416-.2l-.453.324a.798.798 0 01-.796.064 7.462 7.462 0 00-.478-.198.798.798 0 01-.517-.608l-.091-.55a1.875 1.875 0 00-1.85-1.566h-.344zM12 15.75a3.75 3.75 0 100-7.5 3.75 3.75 0 000 7.5z" fill-rule="evenodd"/>
        </svg>
        <svg aria-hidden="true" fill="currentColor" id="envelope-open" viewBox="0 0 24 24" xmlns="http://www.w3.org/2000/svg">
            <path d="M19.5 22.5a3 3 0 003-3v-8.174l-6.879 4.022 3.485 1.876a.75.75 0 01-.712 1.321l-5.683-3.06a1.5 1.5 0 00-1.422 0l-5.683 3.06a.75.75 0 01-.712-1.32l3.485-1.877L1.5 11.326V19.5a3 3 0 003 3h15z"/>
            <path d="M1.5 9.589v-.745a3 3 0 011.578-2.641l7.5-4.039a3 3 0 012.844 0l7.5 4.039A3 3 0 0122.5 8.844v.745l-8.426 4.926-.652-.35a3 3 0 00-2.844 0l-.652.35L1.5 9.59z"/>
        </svg>
        <svg aria-hidden="true" fill="currentColor" id="x-circle" viewBox="0 0 24 24" xmlns="http://www.w3.org/2000/svg">
          <path clip-rule="evenodd" d="M12 2.25c-5.385 0-9.75 4.365-9.75 9.75s4.365 9.75 9.75 9.75 9.75-4.365 9.75-9.75S17.385 2.25 12 2.25zm-1.72 6.97a.75.75 0 10-1.06 1.06L10.94 12l-1.72 1.72a.75.75 0 101.06 1.06L12 13.06l1.72 1.72a.75.75 0 101.06-1.06L13.06 12l1.72-1.72a.75.75 0 10-1.06-1.06L12 10.94l-1.72-1.72z" fill-rule="evenodd"/>
        </svg>
        <svg aria-hidden="true" fill="currentColor" id="pencil" viewBox="0 0 24 24" xmlns="http://www.w3.org/2000/svg">
          <path d="M21.731 2.269a2.625 2.625 0 00-3.712 0l-1.157 1.157 3.712 3.712 1.157-1.157a2.625 2.625 0 000-3.712zM19.513 8.199l-3.712-3.712-12.15 12.15a5.25 5.25 0 00-1.32 2.214l-.8 2.685a.75.75 0 00.933.933l2.685-.8a5.25 5.25 0 002.214-1.32L19.513 8.2z"/>
        </svg>
        <svg aria-hidden="true" fill="currentColor" id="x-mark" viewBox="0 0 24 24" xmlns="http://www.w3.org/2000/svg">
          <path clip-rule="evenodd" d="M5.47 5.47a.75.75 0 011.06 0L12 10.94l5.47-5.47a.75.75 0 111.06 1.06L13.06 12l5.47 5.47a.75.75 0 11-1.06 1.06L12 13.06l-5.47 5.47a.75.75 0 01-1.06-1.06L10.94 12 5.47 6.53a.75.75 0 010-1.06z" fill-rule="evenodd"/>
        </svg>
        <svg aria-hidden="true" fill="currentColor" id="moon" viewBox="0 0 24 24" xmlns="http://www.w3.org/2000/svg">
          <path clip-rule="evenodd" d="M9.528 1.718a.75.75 0 01.162.819A8.97 8.97 0 009 6a9 9 0 009 9 8.97 8.97 0 003.463-.69.75.75 0 01.981.98 10.503 10.503 0 01-9.694 6.46c-5.799 0-10.5-4.701-10.5-10.5 0-4.368 2.667-8.112 6.46-9.694a.75.75 0 01.818.162z" fill-rule="evenodd"/>
        </svg>
        <svg aria-hidden="true" fill="currentColor" id="sun" viewBox="0 0 24 24" xmlns="http://www.w3.org/2000/svg">
          <path d="M12 2.25a.75.75 0 01.75.75v2.25a.75.75 0 01-1.5 0V3a.75.75 0 01.75-.75zM7.5 12a4.5 4.5 0 119 0 4.5 4.5 0 01-9 0zM18.894 6.166a.75.75 0 00-1.06-1.06l-1.591 1.59a.75.75 0 101.06 1.061l1.591-1.59zM21.75 12a.75.75 0 01-.75.75h-2.25a.75.75 0 010-1.5H21a.75.75 0 01.75.75zM17.834 18.894a.75.75 0 001.06-1.06l-1.59-1.591a.75.75 0 10-1.061 1.06l1.59 1.591zM12 18a.75.75 0 01.75.75V21a.75.75 0 01-1.5 0v-2.25A.75.75 0 0112 18zM7.758 17.303a.75.75 0 00-1.061-1.06l-1.591 1.59a.75.75 0 001.06 1.061l1.591-1.59zM6 12a.75.75 0 01-.75.75H3a.75.75 0 010-1.5h2.25A.75.75 0 016 12zM6.697 7.757a.75.75 0 001.06-1.06l-1.59-1.591a.75.75 0 00-1.061 1.06l1.59 1.591z"/>
        </svg>
        <svg aria-hidden="true" fill="currentColor" id="pencil-square" viewBox="0 0 24 24" xmlns="http://www.w3.org/2000/svg">
          <path d="M21.731 2.269a2.625 2.625 0 00-3.712 0l-1.157 1.157 3.712 3.712 1.157-1.157a2.625 2.625 0 000-3.712zM19.513 8.199l-3.712-3.712-8.4 8.4a5.25 5.25 0 00-1.32 2.214l-.8 2.685a.75.75 0 00.933.933l2.685-.8a5.25 5.25 0 002.214-1.32l8.4-8.4z"/>
          <path d="M5.25 5.25a3 3 0 00-3 3v10.5a3 3 0 003 3h10.5a3 3 0 003-3V13.5a.75.75 0 00-1.5 0v5.25a1.5 1.5 0 01-1.5 1.5H5.25a1.5 1.5 0 01-1.5-1.5V8.25a1.5 1.5 0 011.5-1.5h5.25a.75.75 0 000-1.5H5.25z"/>
        </svg>
        <svg aria-hidden="true" fill="currentColor" id="plus-circle" viewBox="0 0 24 24" xmlns="http://www.w3.org/2000/svg">
          <path clip-rule="evenodd" d="M12 2.25c-5.385 0-9.75 4.365-9.75 9.75s4.365 9.75 9.75 9.75 9.75-4.365 9.75-9.75S17.385 2.25 12 2.25zM12.75 9a.75.75 0 00-1.5 0v2.25H9a.75.75 0 000 1.5h2.25V15a.75.75 0 001.5 0v-2.25H15a.75.75 0 000-1.5h-2.25V9z" fill-rule="evenodd"/>
        </svg>
    </defs>
</svg>


