<svg fill="none" height="24" viewBox="0 0 24 24" width="24" xmlns="http://www.w3.org/2000/svg">
  <path
    d="M10.0299 8.97015C9.88773 8.83767 9.69969 8.76555 9.50539 8.76898C9.31109 8.77241 9.1257 8.85112 8.98829 8.98853C8.85088 9.12595 8.77216 9.31133 8.76873 9.50563C8.76531 9.69993 8.83743 9.88798 8.96991 10.0302L10.9399 12.0002L8.96991 13.9702C8.89622 14.0388 8.83712 14.1216 8.79613 14.2136C8.75514 14.3056 8.73309 14.4049 8.73132 14.5056C8.72954 14.6063 8.74807 14.7064 8.78579 14.7998C8.82351 14.8931 8.87965 14.978 8.95087 15.0492C9.02209 15.1204 9.10692 15.1766 9.20031 15.2143C9.2937 15.252 9.39373 15.2705 9.49443 15.2687C9.59513 15.267 9.69445 15.2449 9.78645 15.2039C9.87845 15.1629 9.96125 15.1038 10.0299 15.0302L11.9999 13.0602L13.9699 15.0302C14.1121 15.1626 14.3001 15.2348 14.4944 15.2313C14.6887 15.2279 14.8741 15.1492 15.0115 15.0118C15.1489 14.8744 15.2277 14.689 15.2311 14.4947C15.2345 14.3004 15.1624 14.1123 15.0299 13.9702L13.0599 12.0002L15.0299 10.0302C15.1036 9.96149 15.1627 9.87869 15.2037 9.78669C15.2447 9.69469 15.2667 9.59538 15.2685 9.49468C15.2703 9.39397 15.2518 9.29394 15.214 9.20056C15.1763 9.10717 15.1202 9.02233 15.0489 8.95112C14.9777 8.8799 14.8929 8.82375 14.7995 8.78603C14.7061 8.74831 14.6061 8.72979 14.5054 8.73156C14.4047 8.73334 14.3054 8.75538 14.2134 8.79637C14.1214 8.83736 14.0386 8.89647 13.9699 8.97015L11.9999 10.9402L10.0299 8.97015Z"
    fill="currentColor"/>
  <path clip-rule="evenodd"
        d="M12.057 1.25H11.943C9.634 1.25 7.825 1.25 6.413 1.44C4.969 1.634 3.829 2.04 2.934 2.934C2.039 3.829 1.634 4.969 1.44 6.414C1.25 7.825 1.25 9.634 1.25 11.943V12.057C1.25 14.366 1.25 16.175 1.44 17.587C1.634 19.031 2.04 20.171 2.934 21.066C3.829 21.961 4.969 22.366 6.414 22.56C7.825 22.75 9.634 22.75 11.943 22.75H12.057C14.366 22.75 16.175 22.75 17.587 22.56C19.031 22.366 20.171 21.96 21.066 21.066C21.961 20.171 22.366 19.031 22.56 17.586C22.75 16.175 22.75 14.366 22.75 12.057V11.943C22.75 9.634 22.75 7.825 22.56 6.413C22.366 4.969 21.96 3.829 21.066 2.934C20.171 2.039 19.031 1.634 17.586 1.44C16.175 1.25 14.366 1.25 12.057 1.25ZM3.995 3.995C4.565 3.425 5.335 3.098 6.614 2.926C7.914 2.752 9.622 2.75 12 2.75C14.378 2.75 16.086 2.752 17.386 2.926C18.665 3.098 19.436 3.426 20.006 3.995C20.575 4.565 20.902 5.335 21.074 6.614C21.248 7.914 21.25 9.622 21.25 12C21.25 14.378 21.248 16.086 21.074 17.386C20.902 18.665 20.574 19.436 20.005 20.006C19.435 20.575 18.665 20.902 17.386 21.074C16.086 21.248 14.378 21.25 12 21.25C9.622 21.25 7.914 21.248 6.614 21.074C5.335 20.902 4.564 20.574 3.994 20.005C3.425 19.435 3.098 18.665 2.926 17.386C2.752 16.086 2.75 14.378 2.75 12C2.75 9.622 2.752 7.914 2.926 6.614C3.098 5.335 3.426 4.565 3.995 3.995Z"
        fill="currentColor"
        fill-rule="evenodd"/>
</svg>
