<svg fill="none" height="38" viewBox="0 0 38 38" width="38" xmlns="http://www.w3.org/2000/svg">
  <path
    d="M4.75 8.70833C4.75 7.83389 5.45889 7.125 6.33333 7.125H14.9581C15.2707 7.125 15.5763 7.21753 15.8363 7.39092L18.6012 9.23408C18.8611 9.40747 19.1669 9.5 19.4794 9.5H31.6667C32.5411 9.5 33.25 10.2089 33.25 11.0833V29.2917C33.25 30.1661 32.5411 30.875 31.6667 30.875H6.33333C5.45889 30.875 4.75 30.1661 4.75 29.2917V8.70833Z"
    fill="var(--organizo-primary-100)"/>
  <path
    d="M15.4375 14.25L18.5362 11.1512C18.8331 10.8543 19.2359 10.6875 19.6558 10.6875H31.6667C32.5411 10.6875 33.25 11.3964 33.25 12.2708V28.1042C33.25 28.9786 32.5411 29.6875 31.6667 29.6875H6.33333C5.45889 29.6875 4.75 28.9786 4.75 28.1042V15.8333C4.75 14.9589 5.45889 14.25 6.33333 14.25H15.4375Z"
    fill="var(--organizo-primary-200)"/>
  <path
    d="M16.0312 15.4375L19.13 12.3387C19.4269 12.0418 19.8297 11.875 20.2496 11.875H31.6667C32.5411 11.875 33.25 12.5839 33.25 13.4583V28.1042C33.25 28.9786 32.5411 29.6875 31.6667 29.6875H6.33333C5.45889 29.6875 4.75 28.9786 4.75 28.1042V17.0208C4.75 16.1464 5.45889 15.4375 6.33333 15.4375H16.0312Z"
    fill="rgba(var(--organizo-primary-300-rgb))"/>
  <defs>
    <linearGradient gradientUnits="userSpaceOnUse" id="paint0_linear_92_26526" x1="19" x2="33.25" y1="10.6875"
                    y2="29.6875">
      <stop stop-color="#FFE79F"/>
      <stop offset="1" stop-color="#FFC937"/>
    </linearGradient>
  </defs>
</svg>
