<svg fill="none" height="24" viewBox="0 0 26 24" width="26" xmlns="http://www.w3.org/2000/svg">
  <path
    d="M21 14V10H16.4286V11.5H13.5714V7.5C13.5714 7.23478 13.451 6.98043 13.2367 6.79289C13.0224 6.60536 12.7317 6.5 12.4286 6.5H9.57143V5H5V9H9.57143V7.5H12.4286V16.5C12.4286 16.7652 12.549 17.0196 12.7633 17.2071C12.9776 17.3946 13.2683 17.5 13.5714 17.5H16.4286V19H21V15H16.4286V16.5H13.5714V12.5H16.4286V14H21ZM8.42857 8H6.14286V6H8.42857V8ZM17.5714 16H19.8571V18H17.5714V16ZM17.5714 11H19.8571V13H17.5714V11Z"
    fill="currentColor"/>
</svg>
