<svg fill="none" height="16" viewBox="0 0 17 16" width="17" xmlns="http://www.w3.org/2000/svg">
  <path
    d="M15.1666 8.00016C15.1666 11.1428 15.1666 12.7142 14.1899 13.6902C13.2146 14.6668 11.6426 14.6668 8.49992 14.6668C5.35725 14.6668 3.78592 14.6668 2.80925 13.6902C1.83325 12.7148 1.83325 11.1428 1.83325 8.00016C1.83325 4.8575 1.83325 3.28616 2.80925 2.3095C3.78659 1.3335 5.35725 1.3335 8.49992 1.3335"
    stroke="currentColor" stroke-linecap="round" stroke-width="1.5"/>
  <path
    d="M1.83325 8.3335L3.00125 7.3115C3.29401 7.05554 3.67308 6.92039 4.06173 6.93338C4.45038 6.94638 4.81958 7.10656 5.09459 7.3815L7.95459 10.2415C8.17652 10.4634 8.46962 10.5999 8.78229 10.627C9.09495 10.654 9.40715 10.5699 9.66392 10.3895L9.86325 10.2495C10.2336 9.98935 10.6813 9.86254 11.1331 9.88979C11.5849 9.91703 12.0141 10.0967 12.3506 10.3995L14.4999 12.3335M10.4999 3.66683H12.8333M12.8333 3.66683H15.1666M12.8333 3.66683V6.00016M12.8333 3.66683V1.3335"
    stroke="currentColor" stroke-linecap="round" stroke-width="1.5"/>
</svg>
