<svg fill="none" height="16" viewBox="0 0 18 16" width="18" xmlns="http://www.w3.org/2000/svg">
  <path
    d="M17.3333 15.5V13.8333C17.3333 12.2801 16.271 10.9751 14.8333 10.605M11.9166 0.742299C13.1382 1.23679 14 2.43443 14 3.83333C14 5.23224 13.1382 6.42988 11.9166 6.92437M13.1666 15.5C13.1666 13.9469 13.1666 13.1703 12.9129 12.5577C12.5746 11.741 11.9257 11.092 11.1089 10.7537C10.4963 10.5 9.71977 10.5 8.16663 10.5H5.66663C4.11349 10.5 3.33692 10.5 2.72435 10.7537C1.90759 11.092 1.25867 11.741 0.920361 12.5577C0.666626 13.1703 0.666626 13.9469 0.666626 15.5M10.25 3.83333C10.25 5.67428 8.75758 7.16667 6.91663 7.16667C5.07568 7.16667 3.58329 5.67428 3.58329 3.83333C3.58329 1.99238 5.07568 0.5 6.91663 0.5C8.75758 0.5 10.25 1.99238 10.25 3.83333Z"
    stroke="currentColor" stroke-linecap="round" stroke-linejoin="round"/>
</svg>
