<svg fill="none" height="20" viewBox="0 0 20 20" width="20" xmlns="http://www.w3.org/2000/svg">
  <path
    d="M16.1392 14.5833H12.5C12.3817 14.5833 12.2828 14.5433 12.2034 14.4633C12.1234 14.3833 12.0834 14.2842 12.0834 14.1658C12.0834 14.0475 12.1234 13.9486 12.2034 13.8692C12.2834 13.7897 12.3822 13.75 12.5 13.75H16.1392L14.7059 12.3C14.6309 12.2183 14.592 12.1217 14.5892 12.01C14.5853 11.8989 14.6242 11.8025 14.7059 11.7208C14.7875 11.6392 14.8847 11.5986 14.9975 11.5992C15.1109 11.5992 15.21 11.6397 15.295 11.7208L17.27 13.6958C17.4039 13.8303 17.4709 13.9872 17.4709 14.1667C17.4709 14.3461 17.4036 14.5031 17.2692 14.6375L15.2942 16.6125C15.2097 16.6936 15.1106 16.7342 14.9967 16.7342C14.8828 16.7342 14.7856 16.6936 14.705 16.6125C14.6239 16.5308 14.585 16.4344 14.5884 16.3233C14.5917 16.2117 14.6306 16.115 14.705 16.0333L16.1392 14.5833ZM4.82335 14.5833L3.49169 15.9158C3.38835 16.0192 3.26669 16.0439 3.12669 15.99C2.98669 15.9361 2.91669 15.8336 2.91669 15.6825V5.09583C2.91669 4.72583 3.04863 4.40917 3.31252 4.14583C3.57585 3.88194 3.89252 3.75 4.26252 3.75H14.0709C14.4409 3.75 14.7575 3.88194 15.0209 4.14583C15.2847 4.40917 15.4167 4.72583 15.4167 5.09583V8.75C15.4167 8.86833 15.3767 8.96722 15.2967 9.04667C15.2167 9.12667 15.1178 9.16667 15 9.16667C14.8822 9.16667 14.7834 9.12667 14.7034 9.04667C14.6239 8.96722 14.5842 8.86833 14.5842 8.75V5.09583C14.5842 4.94639 14.5361 4.82361 14.44 4.7275C14.3439 4.63139 14.2211 4.58333 14.0717 4.58333H4.26252C4.11308 4.58333 3.9903 4.63139 3.89419 4.7275C3.79808 4.82361 3.75002 4.94639 3.75002 5.09583V13.75H9.58335C9.70169 13.75 9.80058 13.79 9.88002 13.87C9.96002 13.95 10 14.0492 10 14.1675C10 14.2858 9.96002 14.3847 9.88002 14.4642C9.80058 14.5436 9.70169 14.5833 9.58335 14.5833H4.82335ZM6.34585 7.91667H11.9875C12.1053 7.91667 12.2042 7.87667 12.2842 7.79667C12.3642 7.71667 12.4042 7.61778 12.4042 7.5C12.4042 7.38222 12.3642 7.28333 12.2842 7.20333C12.2042 7.12389 12.1053 7.08417 11.9875 7.08417H6.34585C6.22808 7.08417 6.12919 7.12417 6.04919 7.20417C5.96919 7.28417 5.92919 7.38278 5.92919 7.5C5.92919 7.61722 5.96919 7.71611 6.04919 7.79667C6.12919 7.87611 6.22808 7.91583 6.34585 7.91583M6.34585 11.2492H9.48752C9.6053 11.2492 9.70419 11.2092 9.78419 11.1292C9.86419 11.0492 9.90419 10.95 9.90419 10.8317C9.90419 10.7133 9.86419 10.6144 9.78419 10.535C9.70419 10.4556 9.6053 10.4158 9.48752 10.4158H6.34585C6.22808 10.4158 6.12919 10.4558 6.04919 10.5358C5.96919 10.6158 5.92919 10.715 5.92919 10.8333C5.92919 10.9517 5.96919 11.0506 6.04919 11.13C6.12919 11.2094 6.22808 11.2492 6.34585 11.2492Z"
    fill="currentColor"/>
</svg>
