<svg fill="none" height="52" viewBox="0 0 52 52" width="52" xmlns="http://www.w3.org/2000/svg">
  <path
    d="M6.5 11.9167C6.5 10.7201 7.47006 9.75 8.66667 9.75H20.469C20.8967 9.75 21.3149 9.87662 21.6708 10.1139L25.4542 12.6361C25.81 12.8734 26.2284 13 26.6561 13H43.3333C44.53 13 45.5 13.9701 45.5 15.1667V40.0833C45.5 41.28 44.53 42.25 43.3333 42.25H8.66667C7.47006 42.25 6.5 41.28 6.5 40.0833V11.9167Z"
    fill="currentColor"/>
  <path
    d="M21.125 19.5L25.3654 15.2596C25.7716 14.8533 26.3228 14.625 26.8974 14.625H43.3333C44.53 14.625 45.5 15.5951 45.5 16.7917V38.4583C45.5 39.655 44.53 40.625 43.3333 40.625H8.66667C7.47006 40.625 6.5 39.655 6.5 38.4583V21.6667C6.5 20.4701 7.47006 19.5 8.66667 19.5H21.125Z"
    fill="currentColor"/>
  <path
    d="M21.9375 21.125L26.1779 16.8846C26.5841 16.4783 27.1353 16.25 27.7099 16.25H43.3333C44.53 16.25 45.5 17.2201 45.5 18.4167V38.4583C45.5 39.655 44.53 40.625 43.3333 40.625H8.66667C7.47006 40.625 6.5 39.655 6.5 38.4583V23.2917C6.5 22.095 7.47006 21.125 8.66667 21.125H21.9375Z"
    fill="rgba(var(--organizo-primary-200-rgb))"/>
  <defs>
    <linearGradient gradientUnits="userSpaceOnUse" id="paint0_linear_511_5687" x1="26" x2="45.5" y1="14.625"
                    y2="40.625">
      <stop stop-color="#BEDBFB"/>
      <stop offset="1" stop-color="#007BFF"/>
    </linearGradient>
  </defs>
</svg>
