<svg fill="none" height="15" viewBox="0 0 12 15" width="12" xmlns="http://www.w3.org/2000/svg">
  <path
    d="M11 13.8335C11 11.9918 8.76167 10.5002 6 10.5002C3.23833 10.5002 1 11.9918 1 13.8335M6 8.00016C5.11594 8.00016 4.2681 7.64897 3.64298 7.02385C3.01786 6.39873 2.66667 5.55088 2.66667 4.66683C2.66667 3.78277 3.01786 2.93493 3.64298 2.30981C4.2681 1.68469 5.11594 1.3335 6 1.3335C6.88405 1.3335 7.7319 1.68469 8.35702 2.30981C8.98214 2.93493 9.33333 3.78277 9.33333 4.66683C9.33333 5.55088 8.98214 6.39873 8.35702 7.02385C7.7319 7.64897 6.88405 8.00016 6 8.00016Z"
    stroke="currentColor" stroke-linecap="round" stroke-linejoin="round"/>
</svg>
