<svg fill="none" height="32" viewBox="0 0 146 32" width="146" xmlns="http://www.w3.org/2000/svg">
  <g clip-path="url(#clip0_169_46)">
    <path
      d="M9.24116 22.0544C9.80553 22.0544 10.2635 22.4996 10.2635 23.0451V29.4345C10.2635 29.9814 9.80405 30.4252 9.24116 30.4252H2.64751C2.08314 30.4252 1.62514 29.9799 1.62514 29.4345V23.0451C1.62514 22.4982 2.08462 22.0544 2.64751 22.0544H9.24116ZM9.24116 20.4796H2.64751C1.18488 20.4796 0 21.6278 0 23.0451V29.4345C0 30.8518 1.18488 32 2.64751 32H9.24116C10.7038 32 11.8887 30.8518 11.8887 29.4345V23.0451C11.8887 21.6278 10.7038 20.4796 9.24116 20.4796Z"
      fill="var(--organizo-primary)"/>
    <path
      fill="var(--organizo-text-default)"
      d="M9.24116 0H2.64751C1.18533 0 0 1.14861 0 2.5655V8.9549C0 10.3718 1.18533 11.5204 2.64751 11.5204H9.24116C10.7033 11.5204 11.8887 10.3718 11.8887 8.9549V2.5655C11.8887 1.14861 10.7033 0 9.24116 0Z"/>
    <mask height="12" id="mask0_169_46" maskUnits="userSpaceOnUse" style="mask-type:luminance" width="12" x="20" y="0">
      <path
        d="M29.3525 0H22.7588C21.2967 0 20.1113 1.14861 20.1113 2.5655V8.9549C20.1113 10.3718 21.2967 11.5204 22.7588 11.5204H29.3525C30.8147 11.5204 32 10.3718 32 8.9549V2.5655C32 1.14861 30.8147 0 29.3525 0Z"
        fill="white"/>
    </mask>
    <g mask="url(#mask0_169_46)">
      <path d="M23.0839 8.64136H20.1113V11.5218H23.0839V8.64136Z" fill="var(--organizo-primary-400)"/>
      <path d="M26.0565 8.64136H23.084V11.5218H26.0565V8.64136Z" fill="var(--organizo-primary)"/>
      <path d="M29.0272 8.64136H26.0547V11.5218H29.0272V8.64136Z" fill="var(--organizo-primary-400)"/>
      <path d="M32.0057 8.64136H29.0332V11.5218H32.0057V8.64136Z" fill="var(--organizo-primary-300)"/>
      <path d="M23.0839 5.76089H20.1113V8.64135H23.0839V5.76089Z" fill="var(--organizo-primary)"/>
      <path d="M26.0565 5.76089H23.084V8.64135H26.0565V5.76089Z" fill="var(--organizo-primary-300)"/>
      <path d="M29.0272 5.76089H26.0547V8.64135H29.0272V5.76089Z" fill="var(--organizo-primary)"/>
      <path d="M32.0057 5.76089H29.0332V8.64135H32.0057V5.76089Z" fill="var(--organizo-primary-400)"/>
      <path d="M23.0839 2.8804H20.1113V5.76086H23.0839V2.8804Z" fill="var(--organizo-primary-400)"/>
      <path d="M26.0565 2.8804H23.084V5.76086H26.0565V2.8804Z" fill="var(--organizo-primary)"/>
      <path d="M29.0272 2.8804H26.0547V5.76086H29.0272V2.8804Z" fill="var(--organizo-primary-400)"/>
      <path d="M32.0057 2.8804H29.0332V5.76086H32.0057V2.8804Z" fill="var(--organizo-primary-100)"/>
      <path d="M23.0839 0H20.1113V2.88046H23.0839V0Z" fill="var(--organizo-primary)"/>
      <path d="M26.0565 0H23.084V2.88046H26.0565V0Z" fill="var(--organizo-primary-400)"/>
      <path d="M29.0272 0H26.0547V2.88046H29.0272V0Z" fill="var(--organizo-primary-300)"/>
      <path d="M32.0057 0H29.0332V2.88046H32.0057V0Z" fill="var(--organizo-primary-200)"/>
    </g>
    <path
      d="M19.3261 10.2448H12.7325C11.2703 10.2448 10.085 11.3934 10.085 12.8103V19.1997C10.085 20.6166 11.2703 21.7652 12.7325 21.7652H19.3261C20.7883 21.7652 21.9736 20.6166 21.9736 19.1997V12.8103C21.9736 11.3934 20.7883 10.2448 19.3261 10.2448Z"
      fill="var(--organizo-primary)"/>
    <mask height="12" id="mask1_169_46" maskUnits="userSpaceOnUse" style="mask-type:luminance" width="12" x="20" y="20">
      <path
        d="M29.3525 20.4796H22.7588C21.2967 20.4796 20.1113 21.6282 20.1113 23.0451V29.4345C20.1113 30.8514 21.2967 32 22.7588 32H29.3525C30.8147 32 32 30.8514 32 29.4345V23.0451C32 21.6282 30.8147 20.4796 29.3525 20.4796Z"
        fill="white"/>
    </mask>
    <g mask="url(#mask1_169_46)">
      <path d="M23.0839 29.1209H20.1113V32.0014H23.0839V29.1209Z" fill="#4F4C4D"/>
      <path d="M26.0565 29.1209H23.084V32.0014H26.0565V29.1209Z" fill="#7B7979"/>
      <path d="M23.0839 26.2404H20.1113V29.1209H23.0839V26.2404Z" fill="var(--organizo-text-default)"/>
      <path d="M26.0565 26.2404H23.084V29.1209H26.0565V26.2404Z" fill="#4F4C4D"/>
      <path d="M29.0272 26.2404H26.0547V29.1209H29.0272V26.2404Z" fill="#7B7979"/>
      <path d="M23.0839 23.36H20.1113V26.2404H23.0839V23.36Z" fill="var(--organizo-text-default)"/>
      <path d="M29.0272 23.36H26.0547V26.2404H29.0272V23.36Z" fill="#4F4C4D"/>
      <path d="M26.0565 23.36H23.084V26.2404H26.0565V23.36Z" fill="var(--organizo-text-default)"/>
      <path d="M32.0038 23.36H29.0312V26.2404H32.0038V23.36Z" fill="#7B7979"/>
      <path d="M23.0839 20.4796H20.1113V23.36H23.0839V20.4796Z" fill="var(--organizo-text-default)"/>
      <path d="M26.0565 20.4795H23.084V23.36H26.0565V20.4795Z" fill="var(--organizo-text-default)"/>
      <path d="M29.0272 20.4796H26.0547V23.36H29.0272V20.4796Z" fill="var(--organizo-text-default)"/>
      <path d="M32.0038 20.4796H29.0312V23.36H32.0038V20.4796Z" fill="#858585"/>
    </g>
    <g clip-path="url(#clip1_169_46)">
      <path
        d="M54.8852 16.1761C54.8852 18.0766 54.5832 19.6875 53.9792 21.0088C53.3751 22.3301 52.5574 23.3337 51.5259 24.0197C50.499 24.7056 49.3467 25.0487 48.069 25.0487C46.7866 25.0487 45.632 24.7029 44.6051 24.0113C43.5783 23.3197 42.7629 22.316 42.1588 21.0004C41.5595 19.6791 41.2598 18.071 41.2598 16.1761C41.2598 14.2757 41.5595 12.6648 42.1588 11.3435C42.7629 10.0222 43.5783 9.01852 44.6051 8.33256C45.632 7.6466 46.7866 7.30362 48.069 7.30362C49.3467 7.30362 50.499 7.6466 51.5259 8.33256C52.5574 9.01852 53.3751 10.0222 53.9792 11.3435C54.5832 12.6648 54.8852 14.2757 54.8852 16.1761ZM51.3586 16.1761C51.3586 15.0516 51.2262 14.1014 50.9614 13.3255C50.7011 12.5495 50.3248 11.962 49.8323 11.5628C49.3444 11.1636 48.7566 10.964 48.069 10.964C47.386 10.964 46.7982 11.1636 46.3057 11.5628C45.8132 11.962 45.4345 12.5495 45.1697 13.3255C44.9095 14.1014 44.7794 15.0516 44.7794 16.1761C44.7794 17.3007 44.9095 18.2509 45.1697 19.0268C45.4345 19.8027 45.8132 20.3902 46.3057 20.7895C46.7982 21.1887 47.386 21.3883 48.069 21.3883C48.7566 21.3883 49.3444 21.1887 49.8323 20.7895C50.3248 20.3902 50.7011 19.8027 50.9614 19.0268C51.2262 18.2509 51.3586 17.3007 51.3586 16.1761ZM56.8994 24.8125V7.53977H62.7955C63.8643 7.53977 64.7865 7.77311 65.5624 8.23978C66.3431 8.70084 66.9448 9.36431 67.3676 10.2302C67.7904 11.0905 68.0018 12.111 68.0018 13.2917C68.0018 14.4893 67.7858 15.507 67.3536 16.3448C66.9216 17.177 66.3082 17.8123 65.5137 18.2509C64.7192 18.6838 63.7783 18.9003 62.691 18.9003H58.9624V15.6111H62.0498C62.5702 15.6111 63.0047 15.5295 63.3531 15.3665C63.7063 15.1978 63.9734 14.9448 64.1547 14.6074C64.3358 14.2644 64.4265 13.8259 64.4265 13.2917C64.4265 12.7576 64.3358 12.3162 64.1547 11.9676C63.9734 11.6134 63.7063 11.3491 63.3531 11.1748C63 10.9949 62.5656 10.9049 62.0498 10.9049H60.3492V24.8125H56.8994ZM64.9352 16.9183L68.4897 24.8125H64.7262L61.2413 16.9183H64.9352ZM79.2611 13.1821C79.1821 12.8279 79.0659 12.5158 78.9126 12.2459C78.7593 11.9704 78.5711 11.7371 78.3481 11.5459C78.1251 11.3547 77.8695 11.2113 77.5814 11.1158C77.2933 11.0146 76.9774 10.964 76.6336 10.964C75.9413 10.964 75.3419 11.1664 74.8354 11.5712C74.3337 11.976 73.9457 12.5664 73.6715 13.3423C73.3974 14.1126 73.2603 15.0488 73.2603 16.1508C73.2603 17.2585 73.3927 18.2031 73.6575 18.9846C73.9224 19.7662 74.3057 20.3622 74.8075 20.7726C75.3094 21.1831 75.918 21.3883 76.6336 21.3883C77.2654 21.3883 77.7997 21.2646 78.2365 21.0172C78.6779 20.7642 79.0125 20.4071 79.2402 19.9461C79.4679 19.485 79.5817 18.9424 79.5817 18.3184L80.2229 18.4111H76.752V15.3665H82.9061V17.6521C82.9061 19.1984 82.6344 20.5224 82.0907 21.6244C81.5517 22.7265 80.8083 23.5727 79.8605 24.1631C78.9173 24.7535 77.8323 25.0487 76.6057 25.0487C75.2443 25.0487 74.0479 24.6916 73.0164 23.9776C71.9849 23.2634 71.1811 22.2457 70.6049 20.9245C70.0288 19.5975 69.7408 18.0232 69.7408 16.2014C69.7408 14.7845 69.9149 13.5279 70.2634 12.4315C70.6119 11.3294 71.0974 10.3961 71.7201 9.63139C72.3473 8.86671 73.0721 8.28758 73.8945 7.894C74.7216 7.50041 75.6113 7.30362 76.5639 7.30362C77.3909 7.30362 78.1599 7.447 78.8708 7.73375C79.5863 8.02051 80.2182 8.42533 80.7664 8.94823C81.3194 9.47115 81.7678 10.0925 82.1116 10.8121C82.4555 11.5318 82.6692 12.3218 82.7528 13.1821H79.2611ZM87.5861 24.8125H83.8784L88.6943 7.53977H93.2873L98.1032 24.8125H94.3953L91.043 11.8917H90.9315L87.5861 24.8125ZM87.0914 18.0147H94.8414V21.1859H87.0914V18.0147ZM111.788 7.53977V24.8125H108.861L103.181 14.8436H103.09V24.8125H99.6399V7.53977H102.609L108.226 17.4918H108.345V7.53977H111.788ZM117.407 7.53977V24.8125H113.957V7.53977H117.407ZM119.524 24.8125V22.4342L126.459 10.9302H119.531V7.53977H130.822V9.91815L123.887 21.4221H130.815V24.8125H119.524ZM145.733 16.1761C145.733 18.0766 145.431 19.6875 144.827 21.0088C144.223 22.3301 143.405 23.3337 142.374 24.0197C141.346 24.7056 140.194 25.0487 138.917 25.0487C137.634 25.0487 136.48 24.7029 135.453 24.0113C134.426 23.3197 133.611 22.316 133.006 21.0004C132.407 19.6791 132.107 18.071 132.107 16.1761C132.107 14.2757 132.407 12.6648 133.006 11.3435C133.611 10.0222 134.426 9.01852 135.453 8.33256C136.48 7.6466 137.634 7.30362 138.917 7.30362C140.194 7.30362 141.346 7.6466 142.374 8.33256C143.405 9.01852 144.223 10.0222 144.827 11.3435C145.431 12.6648 145.733 14.2757 145.733 16.1761ZM142.206 16.1761C142.206 15.0516 142.074 14.1014 141.809 13.3255C141.549 12.5495 141.173 11.962 140.68 11.5628C140.192 11.1636 139.605 10.964 138.917 10.964C138.234 10.964 137.646 11.1636 137.153 11.5628C136.661 11.962 136.282 12.5495 136.017 13.3255C135.757 14.1014 135.627 15.0516 135.627 16.1761C135.627 17.3007 135.757 18.2509 136.017 19.0268C136.282 19.8027 136.661 20.3902 137.153 20.7895C137.646 21.1887 138.234 21.3883 138.917 21.3883C139.605 21.3883 140.192 21.1887 140.68 20.7895C141.173 20.3902 141.549 19.8027 141.809 19.0268C142.074 18.2509 142.206 17.3007 142.206 16.1761Z"
        fill="var(--organizo-text-default)"/>
    </g>
  </g>
  <defs>
    <clipPath id="clip0_169_46">
      <rect fill="white" height="32" width="146"/>
    </clipPath>
    <clipPath id="clip1_169_46">
      <rect fill="white" height="19" transform="translate(41 7)" width="105"/>
    </clipPath>
  </defs>
</svg>
