<svg fill="none" height="128" viewBox="0 0 24 24" width="128" xmlns="http://www.w3.org/2000/svg">
  <style>
    * {
      --organizo-primary: #4f46e5;
      --organizo-primary-100: #e0e7ff;
      --organizo-primary-200: #c7d2fe;
      --organizo-primary-300: #a5b4fc;
      --organizo-primary-400: #818cf8;
      --organizo-text-default: #FFFFFF;
      --organizo-bg-default: #0f172a;
    }
  </style>
  <rect fill="var(--organizo-bg-default)" height="24" rx="12" width="24"/>
  <g clip-path="url(#clip0_179_43)">
    <path
      d="M13.5717 9.16666H10.4289C9.73198 9.16666 9.16699 9.73164 9.16699 10.4286V13.5714C9.16699 14.2683 9.73198 14.8333 10.4289 14.8333H13.5717C14.2687 14.8333 14.8337 14.2683 14.8337 13.5714V10.4286C14.8337 9.73164 14.2687 9.16666 13.5717 9.16666Z"
      fill="var(--organizo-primary)"/>
    <path
      d="M8.45534 14.9964C8.75797 14.9964 9.00355 15.2428 9.00355 15.5446V19.0803C9.00355 19.3829 8.75718 19.6286 8.45534 19.6286H4.91966C4.61703 19.6286 4.37145 19.3821 4.37145 19.0803V15.5446C4.37145 15.242 4.61782 14.9964 4.91966 14.9964H8.45534ZM8.45534 14.125H4.91966C4.13536 14.125 3.5 14.7603 3.5 15.5446V19.0803C3.5 19.8646 4.13536 20.5 4.91966 20.5H8.45534C9.23964 20.5 9.875 19.8646 9.875 19.0803V15.5446C9.875 14.7603 9.23964 14.125 8.45534 14.125Z"
      fill="var(--organizo-primary)"/>
    <path
      d="M8.45534 3.5H4.91966C4.1356 3.5 3.5 4.1356 3.5 4.91966V8.45534C3.5 9.2394 4.1356 9.875 4.91966 9.875H8.45534C9.23939 9.875 9.875 9.2394 9.875 8.45534V4.91966C9.875 4.1356 9.23939 3.5 8.45534 3.5Z"
      fill="var(--organizo-text-default)"/>
    <mask height="7" id="mask0_179_43" maskUnits="userSpaceOnUse" style="mask-type:luminance" width="7" x="14" y="3">
      <path
        d="M19.0803 3.5H15.5446C14.7605 3.5 14.125 4.1356 14.125 4.91966V8.45534C14.125 9.2394 14.7605 9.875 15.5446 9.875H19.0803C19.8644 9.875 20.5 9.2394 20.5 8.45534V4.91966C20.5 4.1356 19.8644 3.5 19.0803 3.5Z"
        fill="white"/>
    </mask>
    <g mask="url(#mask0_179_43)">
      <path d="M15.719 8.28177H14.125V9.87571H15.719V8.28177Z" fill="var(--organizo-primary-400)"/>
      <path d="M17.3127 8.28177H15.7188V9.87571H17.3127V8.28177Z" fill="var(--organizo-primary)"/>
      <path d="M18.9065 8.28177H17.3125V9.87571H18.9065V8.28177Z" fill="var(--organizo-primary-400)"/>
      <path d="M20.5012 8.28177H18.9072V9.87571H20.5012V8.28177Z" fill="var(--organizo-primary-300)"/>
      <path d="M15.719 6.68799H14.125V8.28193H15.719V6.68799Z" fill="var(--organizo-primary)"/>
      <path d="M17.3127 6.68799H15.7188V8.28193H17.3127V6.68799Z" fill="var(--organizo-primary-300)"/>
      <path d="M18.9065 6.68799H17.3125V8.28193H18.9065V6.68799Z" fill="var(--organizo-primary)"/>
      <path d="M20.5012 6.68799H18.9072V8.28193H20.5012V6.68799Z" fill="var(--organizo-primary-400)"/>
      <path d="M15.719 5.09381H14.125V6.68776H15.719V5.09381Z" fill="var(--organizo-primary-400)"/>
      <path d="M17.3127 5.09381H15.7188V6.68776H17.3127V5.09381Z" fill="var(--organizo-primary)"/>
      <path d="M18.9065 5.09381H17.3125V6.68776H18.9065V5.09381Z" fill="var(--organizo-primary-400)"/>
      <path d="M20.5012 5.09381H18.9072V6.68776H20.5012V5.09381Z" fill="var(--organizo-primary-100)"/>
      <path d="M15.719 3.5H14.125V5.09395H15.719V3.5Z" fill="var(--organizo-primary)"/>
      <path d="M17.3127 3.5H15.7188V5.09395H17.3127V3.5Z" fill="var(--organizo-primary-400)"/>
      <path d="M18.9065 3.5H17.3125V5.09395H18.9065V3.5Z" fill="var(--organizo-primary-300)"/>
      <path d="M20.5012 3.5H18.9072V5.09395H20.5012V3.5Z" fill="var(--organizo-primary-200)"/>
    </g>
    <mask height="7" id="mask1_179_43" maskUnits="userSpaceOnUse" style="mask-type:luminance" width="7" x="14" y="14">
      <path
        d="M19.0803 14.125H15.5446C14.7605 14.125 14.125 14.7606 14.125 15.5446V19.0803C14.125 19.8644 14.7605 20.5 15.5446 20.5H19.0803C19.8644 20.5 20.5 19.8644 20.5 19.0803V15.5446C20.5 14.7606 19.8644 14.125 19.0803 14.125Z"
        fill="white"/>
    </mask>
    <g mask="url(#mask1_179_43)">
      <path d="M15.719 18.9067H14.125V20.5007H15.719V18.9067Z" fill="#4F4C4D"/>
      <path d="M17.3127 18.9067H15.7188V20.5007H17.3127V18.9067Z" fill="#7B7979"/>
      <path d="M15.719 17.313H14.125V18.9069H15.719V17.313Z" fill="var(--organizo-text-default)"/>
      <path d="M17.3127 17.313H15.7188V18.9069H17.3127V17.313Z" fill="#4F4C4D"/>
      <path d="M18.9065 17.313H17.3125V18.9069H18.9065V17.313Z" fill="#7B7979"/>
      <path d="M15.719 15.7188H14.125V17.3128H15.719V15.7188Z" fill="var(--organizo-text-default)"/>
      <path d="M18.9065 15.7188H17.3125V17.3128H18.9065V15.7188Z" fill="#4F4C4D"/>
      <path d="M17.3127 15.7188H15.7188V17.3128H17.3127V15.7188Z" fill="var(--organizo-text-default)"/>
      <path d="M20.5012 15.7188H18.9072V17.3128H20.5012V15.7188Z" fill="#7B7979"/>
      <path d="M15.719 14.125H14.125V15.7189H15.719V14.125Z" fill="var(--organizo-text-default)"/>
      <path d="M17.3127 14.125H15.7188V15.7189H17.3127V14.125Z" fill="var(--organizo-text-default)"/>
      <path d="M18.9065 14.125H17.3125V15.7189H18.9065V14.125Z" fill="var(--organizo-text-default)"/>
      <path d="M20.5012 14.125H18.9072V15.7189H20.5012V14.125Z" fill="#4F4C4D"/>
    </g>
  </g>
  <defs>
    <clipPath id="clip0_179_43">
      <rect fill="white" height="17" transform="translate(3.5 3.5)" width="17"/>
    </clipPath>
  </defs>
</svg>
