<svg viewBox="0 0 64 80"
     x="0px" xmlns="http://www.w3.org/2000/svg" y="0px">
  <g>
    <g>
      <path
        d="M50.923,17.615c-0.051-0.122-0.125-0.231-0.217-0.323l-9.998-9.999c-0.092-0.092-0.201-0.166-0.323-0.216    C40.265,7.027,40.134,7,40,7H14c-0.552,0-1,0.448-1,1v48c0,0.553,0.448,1,1,1h36c0.553,0,1-0.447,1-1V18    C51,17.867,50.973,17.736,50.923,17.615z M41,10.414L47.586,17H41V10.414z M15,55V9h24v9c0,0.552,0.447,1,1,1h9v36H15z"
        stroke="currentColor"
      />
      <path
        d="M32,17H22c-0.552,0-1,0.448-1,1s0.448,1,1,1h10c0.552,0,1-0.448,1-1S32.552,17,32,17z"
        stroke="currentColor"
      />
      <path
        d="M32,27H22c-0.552,0-1,0.448-1,1s0.448,1,1,1h10c0.552,0,1-0.448,1-1S32.552,27,32,27z"
        stroke="currentColor"/>
      <path
        d="M32,37H22c-0.552,0-1,0.447-1,1s0.448,1,1,1h10c0.552,0,1-0.447,1-1S32.552,37,32,37z"
        stroke="currentColor"/>
      <path
        d="M32,47H22c-0.552,0-1,0.447-1,1s0.448,1,1,1h10c0.552,0,1-0.447,1-1S32.552,47,32,47z"
        stroke="currentColor"/>
      <path
        d="M43.168,23.445l-3.323,4.985l-1.138-1.137c-0.391-0.391-1.023-0.391-1.414,0s-0.391,1.023,0,1.414l2,2    C39.481,30.896,39.736,31,40,31c0.032,0,0.065-0.001,0.099-0.005c0.298-0.029,0.567-0.191,0.733-0.44l4-6    c0.307-0.459,0.183-1.081-0.277-1.387C44.094,22.86,43.474,22.986,43.168,23.445z"
        stroke="currentColor"/>
      <path
        d="M43.168,33.445l-3.323,4.985l-1.138-1.138c-0.391-0.391-1.023-0.391-1.414,0s-0.391,1.023,0,1.414l2,2    C39.481,40.896,39.736,41,40,41c0.032,0,0.065-0.002,0.099-0.005c0.298-0.029,0.567-0.191,0.733-0.44l4-6    c0.307-0.46,0.183-1.08-0.277-1.387C44.094,32.862,43.474,32.986,43.168,33.445z"
        stroke="currentColor"/>
    </g>
  </g>
</svg>
