<svg fill="none" height="24" viewBox="0 0 24 24" width="24" xmlns="http://www.w3.org/2000/svg">
  <path d="M21 15.998V9.998C21 7.17 21 5.756 20.121 4.877C19.353 4.109 18.175 4.012 16 4H8C5.825 4.012 4.647 4.109 3.879 4.877C3 5.756 3 7.17 3 9.998V15.998C3 18.827 3 20.241 3.879 21.12C4.757 21.998 6.172 21.998 9 21.998H15C17.828 21.998 19.243 21.998 20.121 21.12C21 20.24 21 18.827 21 15.998Z"
        fill="var(--organizo-primary-300)"
        opacity="0.5"/>
  <path
    d="M8 3.5C8 3.10218 8.15804 2.72064 8.43934 2.43934C8.72064 2.15804 9.10218 2 9.5 2H14.5C14.8978 2 15.2794 2.15804 15.5607 2.43934C15.842 2.72064 16 3.10218 16 3.5V4.5C16 4.89782 15.842 5.27936 15.5607 5.56066C15.2794 5.84196 14.8978 6 14.5 6H9.5C9.10218 6 8.72064 5.84196 8.43934 5.56066C8.15804 5.27936 8 4.89782 8 4.5V3.5Z"
    fill="currentColor"/>
  <path clip-rule="evenodd" d="M6.25 10.5C6.25 10.3011 6.32902 10.1103 6.46967 9.96967C6.61032 9.82902 6.80109 9.75 7 9.75H7.5C7.69891 9.75 7.88968 9.82902 8.03033 9.96967C8.17098 10.1103 8.25 10.3011 8.25 10.5C8.25 10.6989 8.17098 10.8897 8.03033 11.0303C7.88968 11.171 7.69891 11.25 7.5 11.25H7C6.80109 11.25 6.61032 11.171 6.46967 11.0303C6.32902 10.8897 6.25 10.6989 6.25 10.5ZM9.75 10.5C9.75 10.3011 9.82902 10.1103 9.96967 9.96967C10.1103 9.82902 10.3011 9.75 10.5 9.75H17C17.1989 9.75 17.3897 9.82902 17.5303 9.96967C17.671 10.1103 17.75 10.3011 17.75 10.5C17.75 10.6989 17.671 10.8897 17.5303 11.0303C17.3897 11.171 17.1989 11.25 17 11.25H10.5C10.3011 11.25 10.1103 11.171 9.96967 11.0303C9.82902 10.8897 9.75 10.6989 9.75 10.5ZM6.25 14C6.25 13.8011 6.32902 13.6103 6.46967 13.4697C6.61032 13.329 6.80109 13.25 7 13.25H7.5C7.69891 13.25 7.88968 13.329 8.03033 13.4697C8.17098 13.6103 8.25 13.8011 8.25 14C8.25 14.1989 8.17098 14.3897 8.03033 14.5303C7.88968 14.671 7.69891 14.75 7.5 14.75H7C6.80109 14.75 6.61032 14.671 6.46967 14.5303C6.32902 14.3897 6.25 14.1989 6.25 14ZM9.75 14C9.75 13.8011 9.82902 13.6103 9.96967 13.4697C10.1103 13.329 10.3011 13.25 10.5 13.25H17C17.1989 13.25 17.3897 13.329 17.5303 13.4697C17.671 13.6103 17.75 13.8011 17.75 14C17.75 14.1989 17.671 14.3897 17.5303 14.5303C17.3897 14.671 17.1989 14.75 17 14.75H10.5C10.3011 14.75 10.1103 14.671 9.96967 14.5303C9.82902 14.3897 9.75 14.1989 9.75 14ZM6.25 17.5C6.25 17.3011 6.32902 17.1103 6.46967 16.9697C6.61032 16.829 6.80109 16.75 7 16.75H7.5C7.69891 16.75 7.88968 16.829 8.03033 16.9697C8.17098 17.1103 8.25 17.3011 8.25 17.5C8.25 17.6989 8.17098 17.8897 8.03033 18.0303C7.88968 18.171 7.69891 18.25 7.5 18.25H7C6.80109 18.25 6.61032 18.171 6.46967 18.0303C6.32902 17.8897 6.25 17.6989 6.25 17.5ZM9.75 17.5C9.75 17.3011 9.82902 17.1103 9.96967 16.9697C10.1103 16.829 10.3011 16.75 10.5 16.75H17C17.1989 16.75 17.3897 16.829 17.5303 16.9697C17.671 17.1103 17.75 17.3011 17.75 17.5C17.75 17.6989 17.671 17.8897 17.5303 18.0303C17.3897 18.171 17.1989 18.25 17 18.25H10.5C10.3011 18.25 10.1103 18.171 9.96967 18.0303C9.82902 17.8897 9.75 17.6989 9.75 17.5Z"
        fill="currentColor"
        fill-rule="evenodd"/>
</svg>
