<svg fill="none" height="24" viewBox="0 0 24 24" width="24" xmlns="http://www.w3.org/2000/svg">
  <path
    d="M8.422 20.6182C10.178 21.5402 11.056 22.0002 12 22.0002V12.0002L2.638 7.07324C2.62439 7.09541 2.61106 7.11775 2.598 7.14024C2 8.15424 2 9.41724 2 11.9422V12.0592C2 14.5832 2 15.8462 2.597 16.8602C3.195 17.8752 4.271 18.4402 6.422 19.5692L8.422 20.6182Z"
    fill="var(--organizo-primary)"/>
  <path d="M17.577 4.432L15.577 3.382C13.822 2.461 12.944 2 12 2C11.055 2 10.178 2.46 8.422 3.382L6.422 4.432C4.318 5.536 3.242 6.1 2.638 7.072L12 12L21.362 7.073C20.756 6.1 19.682 5.536 17.577 4.432Z"
        fill="var(--organizo-primary-300)"
        opacity="0.7"/>
  <path d="M21.403 7.14024C21.3896 7.11774 21.3759 7.0954 21.362 7.07324L12 12.0002V22.0002C12.944 22.0002 13.822 21.5402 15.578 20.6182L17.578 19.5682C19.729 18.4392 20.805 17.8752 21.403 16.8602C22 15.8462 22 14.5832 22 12.0602V11.9432C22 9.41824 22 8.15424 21.403 7.14024Z"
        fill="var(--organizo-primary-300)"
        opacity="0.5"/>
</svg>
