<svg fill="none" height="22" viewBox="0 0 21 22" width="21" xmlns="http://www.w3.org/2000/svg">
  <path
    d="M4 17.5C4 17.9644 4 18.1966 4.02567 18.3916C4.2029 19.7378 5.26222 20.7971 6.60842 20.9743C6.80337 21 7.03558 21 7.5 21H15.2C16.8802 21 17.7202 21 18.362 20.673C18.9265 20.3854 19.3854 19.9265 19.673 19.362C20 18.7202 20 17.8802 20 16.2V8.98822C20 8.25445 20 7.88757 19.9171 7.5423C19.8436 7.2362 19.7224 6.94356 19.5579 6.67515C19.3724 6.3724 19.113 6.11296 18.5941 5.59411L15.4059 2.40589C14.887 1.88703 14.6276 1.6276 14.3249 1.44208C14.0564 1.27759 13.7638 1.15638 13.4577 1.08289C13.1124 1 12.7455 1 12.0118 1H7.5C7.03558 1 6.80337 1 6.60842 1.02567C5.26222 1.2029 4.2029 2.26222 4.02567 3.60842C4 3.80337 4 4.03558 4 4.5M8 13.5L10.5 11L8 8.5M4 8.5L1.5 11L4 13.5"
    stroke="currentColor" stroke-linecap="round" stroke-linejoin="round" stroke-width="1.5"/>
</svg>
