<svg height="800px" width="800px" id="Layer_1" xmlns="http://www.w3.org/2000/svg"
     viewBox="0 0 502.4 502.4">
  <path style="fill:var(--organizo-primary-300)" d="M251.627,430.72C157.76,413.653,106.56,345.387,106.56,234.453c0-93.867,68.267-179.2,145.067-230.4
	c93.867,51.2,145.067,136.533,145.067,230.4c0,96.427-39.253,161.28-110.933,186.88C285.76,421.333,271.253,428.16,251.627,430.72"
  />
  <path style="fill:#51565F;" d="M251.627,503.253c-2.56,0-4.267-1.707-4.267-4.267v-64.853
	c-93.867-18.773-145.067-89.6-145.067-199.68c0-99.84,75.947-186.88,146.773-233.813c1.707-0.853,3.413-0.853,4.267,0
	C347.2,51.84,400.96,137.173,400.96,234.453c0,98.133-39.253,163.84-113.493,191.147c-2.56,0.853-4.267,0-5.12-2.56
	c-0.853-2.56,0-4.267,2.56-5.12c70.827-25.6,108.373-88.747,108.373-183.467c0-93.867-51.2-175.787-140.8-225.28
	c-68.267,46.08-140.8,129.707-140.8,225.28c0,106.667,46.933,172.373,136.533,191.147v-69.12L147.52,297.6
	c-1.707-0.853-2.56-3.413-1.707-5.973c0.853-1.707,3.413-2.56,5.973-1.707l95.573,56.32v-75.093l-108.373-58.88
	c-1.707-0.853-2.56-3.413-1.707-5.973c0.853-1.707,3.413-2.56,5.973-1.707l104.96,56.32V184.96l-82.773-46.08
	c-1.707-0.853-2.56-3.413-1.707-5.973c0.853-1.707,3.413-2.56,5.973-1.707l79.36,43.52V55.253c0-2.56,1.707-4.267,4.267-4.267
	s4.267,1.707,4.267,4.267v121.173l79.36-43.52c1.707-0.853,4.267,0,5.973,1.707c0.853,1.707,0,4.267-1.707,5.973l-82.773,46.08
	v75.947l104.96-56.32c1.707-0.853,4.267,0,5.973,1.707c0.853,1.707,0,4.267-1.707,5.973l-108.373,58.88v75.093l95.573-56.32
	c1.707-0.853,4.267-0.853,5.973,1.707c0.853,1.707,0.853,4.267-1.707,5.973l-100.693,58.88v74.24l0,0v68.267
	C255.893,501.547,254.187,503.253,251.627,503.253z"/>
</svg>

