<!-- Generator: Adobe Illustrator 27.0.0, SVG Export Plug-In . SVG Version: 6.00 Build 0)  -->
<svg id="Layer_1" style="enable-background:new 0 0 12 12;" version="1.1" viewBox="0 0 12 12" x="0px"
     xml:space="preserve"
     xmlns="http://www.w3.org/2000/svg" y="0px">
<style type="text/css">
	.st0 {
    fill: none;
    stroke: currentColor;
    stroke-width: 0.75;
    stroke-linecap: round;
    stroke-linejoin: round;
    stroke-miterlimit: 2;
  }
</style>
  <path class="st0" d="M1.5,4.7c0-1.1,0-1.7,0.2-2.1c0.2-0.4,0.5-0.7,0.9-0.9c0.4-0.2,1-0.2,2.1-0.2h2.6c1.1,0,1.7,0,2.1,0.2
	c0.4,0.2,0.7,0.5,0.9,0.9c0.2,0.4,0.2,1,0.2,2.1v2.6c0,1.1,0,1.7-0.2,2.1c-0.2,0.4-0.5,0.7-0.9,0.9c-0.4,0.2-1,0.2-2.1,0.2H4.7
	c-1.1,0-1.7,0-2.1-0.2c-0.4-0.2-0.7-0.5-0.9-0.9C1.5,9,1.5,8.4,1.5,7.3V4.7z M7.6,5.6L5.2,4.2C4.9,4,4.5,4.2,4.5,4.6l0,2.8
	c0,0.4,0.4,0.6,0.7,0.4l2.4-1.4C7.9,6.2,7.9,5.8,7.6,5.6z"/>
</svg>
