<svg fill="none" height="227" viewBox="0 0 304 227" width="304" xmlns="http://www.w3.org/2000/svg">
  <path access="denied" d="M304 199.087H0V199.239H304V199.087Z" fill="var(--organizo-primary)"/>
  <path access="denied" d="M273.54 208.874H253.402V209.026H273.54V208.874Z" fill="var(--organizo-primary)"/>
  <path access="denied" d="M201.382 210.524H196.096V210.676H201.382V210.524Z" fill="var(--organizo-primary)"/>
  <path access="denied" d="M252.793 203.228H241.124V203.38H252.793V203.228Z" fill="var(--organizo-primary)"/>
  <path access="denied" d="M58.1564 204.249H31.8951V204.401H58.1564V204.249Z" fill="var(--organizo-primary)"/>
  <path access="denied" d="M67.4205 204.249H63.57V204.401H67.4205V204.249Z" fill="var(--organizo-primary)"/>
  <path access="denied" d="M136.889 206.817H79.9344V206.969H136.889V206.817Z" fill="var(--organizo-primary)"/>
  <path
    d="M144.105 171.972H26.7003C24.7869 171.972 23.2299 170.415 23.2299 168.501V3.47046C23.2299 1.55709 24.7869 0 26.7003 0H144.105C146.017 0 147.574 1.55709 147.574 3.47046V168.501C147.574 170.415 146.017 171.972 144.105 171.972ZM26.7003 0.152608C24.8702 0.152608 23.3819 1.64099 23.3819 3.47107V168.502C23.3819 170.332 24.8702 171.82 26.7003 171.82H144.105C145.934 171.82 147.422 170.332 147.422 168.502V3.47046C147.422 1.64099 145.934 0.152 144.105 0.152L26.7003 0.152608Z"
    fill="none"/>
  <path
    d="M275.612 171.972H158.209C156.296 171.972 154.739 170.415 154.739 168.501V3.47046C154.739 1.55709 156.296 0 158.209 0H275.612C277.526 0 279.083 1.55709 279.083 3.47046V168.501C279.084 170.415 277.526 171.972 275.612 171.972ZM158.209 0.152608C156.379 0.152608 154.891 1.64099 154.891 3.47107V168.502C154.891 170.332 156.379 171.82 158.209 171.82H275.612C277.443 171.82 278.931 170.332 278.931 168.502V3.47046C278.931 1.64099 277.443 0.152 275.612 0.152L158.209 0.152608Z"
    fill="none"/>
  <path d="M238.988 12.8963H61.5819V95.8992H238.988V12.8963Z" fill="#BBBBBB"/>
  <path access="denied" d="M241.661 12.8963H62.8307V95.8992H241.661V12.8963Z" fill="var(--organizo-primary)"/>
  <path d="M238.988 95.8992H61.5819L61.5819 100.133H238.988V95.8992Z" fill="#BBBBBB"/>
  <path access="denied" d="M246.113 95.8992H67.2831V100.133H246.113V95.8992Z" fill="var(--organizo-primary)"/>
  <path d="M237.919 92.1578V16.6382H66.5722V92.1578H237.919Z" fill="#FAFAFA"/>
  <path d="M84.9577 92.1582L95.3715 16.6385H111.622L101.208 92.1582H84.9577Z" fill="white"/>
  <path
    access="denied"
    d="M68.3045 88.4336C68.1568 88.4336 68.037 88.3138 68.037 88.1661V19.0724C68.037 18.9246 68.1568 18.8048 68.3045 18.8048C68.4523 18.8048 68.5721 18.9246 68.5721 19.0724V88.1667C68.5721 88.3138 68.4523 88.4336 68.3045 88.4336Z"
    fill="var(--organizo-primary)"/>
  <path d="M104.699 92.1582L115.113 16.6385H121.448L111.034 92.1582H104.699Z" fill="white"/>
  <path d="M237.919 92.1578V16.6382L237.444 16.6381V92.1578L237.919 92.1578Z" fill="#BBBBBB"/>
  <path access="denied" d="M242.545 22.2796H65.1393L64.7952 18.0923H242.201L242.545 22.2796Z"
        fill="var(--organizo-primary)"/>
  <path access="denied" d="M242.545 29.1469H65.1393L64.7952 24.9596H242.201L242.545 29.1469Z"
        fill="var(--organizo-primary)"/>
  <path access="denied" d="M242.545 36.0143H65.1393L64.7952 31.827H242.201L242.545 36.0143Z"
        fill="var(--organizo-primary)"/>
  <path access="denied" d="M242.545 42.8816H65.1393L64.7952 38.6943H242.201L242.545 42.8816Z"
        fill="var(--organizo-primary)"/>
  <path access="denied" d="M242.545 49.749H65.1393L64.7952 45.5617H242.201L242.545 49.749Z"
        fill="var(--organizo-primary)"/>
  <path access="denied" d="M242.545 56.6163H65.1393L64.7952 52.4291H242.201L242.545 56.6163Z"
        fill="var(--organizo-primary)"/>
  <path d="M266.912 116.765H239.838V199.088H266.912V116.765Z" fill="#BBBBBB"/>
  <path d="M259.682 199.088H266.912L266.912 187.724H252.102L259.682 199.088Z" fill="#FAFAFA"/>
  <path d="M193.092 116.765H166.018V199.088H193.092V116.765Z" fill="#BBBBBB"/>
  <path d="M266.912 116.765H186.783V195.177H266.912L266.912 116.765Z" fill="#FAFAFA"/>
  <path d="M194.012 199.088H186.783V187.724H201.593L194.012 199.088Z" fill="#FAFAFA"/>
  <path access="denied" d="M261.304 145.984H192.391V165.606H261.304V145.984Z" fill="var(--organizo-primary)"/>
  <path access="denied" d="M261.304 169.8H192.391V189.423H261.304V169.8Z" fill="var(--organizo-primary)"/>
  <path
    d="M247.634 148.082H206.062C204.492 148.082 203.22 146.81 203.22 145.24V144.284H250.476V145.24C250.475 146.81 249.203 148.082 247.634 148.082Z"
    fill="#FAFAFA"/>
  <path access="denied" d="M261.304 122.167H192.391V141.789H261.304V122.167Z" fill="var(--organizo-primary)"/>
  <path
    d="M247.634 124.265H206.062C204.492 124.265 203.22 122.992 203.22 121.423V120.467H250.476V121.423C250.475 122.992 249.203 124.265 247.634 124.265Z"
    fill="#FAFAFA"/>
  <path
    d="M247.634 171.899H206.062C204.492 171.899 203.22 170.626 203.22 169.057V168.101H250.476V169.057C250.475 170.626 249.203 171.899 247.634 171.899Z"
    fill="#FAFAFA"/>
  <path
    d="M32.4775 134.316C33.986 129.986 45.8797 135.875 50.706 143.051C53.9205 147.83 55.8843 152.931 56.8012 159.784C56.6911 151.965 56.5665 143.564 56.4443 135.636C55.4684 133.66 53.2395 129.102 51.6362 125.491C46.287 113.441 33.5677 108.954 29.1737 101.346C23.4159 91.3781 23.4493 76.425 28.3504 71.029C32.6101 66.3401 46.7151 98.0461 48.3038 101.588C53.7685 113.772 55.3572 122.814 56.3811 131.574C56.2643 124.127 56.1531 117.291 56.0613 112.016C55.7627 94.8109 55.3894 89.2769 55.2186 87.5739C54.6294 86.7422 53.9345 85.773 53.5301 85.2532C50.1168 80.8585 42.543 75.6273 38.7582 69.239C33.2315 59.9117 34.1246 48.7482 38.0012 44.5913C42.0541 40.2447 49.2194 50.5175 53.0237 60.696C56.8279 70.8746 55.2021 80.6165 56.2692 89.0696C56.4923 90.7276 56.7215 97.0246 56.9368 105.76C58.0908 96.3613 60.3896 90.0649 64.6499 84.1977C69.8896 76.9813 74.4131 68.1933 78.7305 69.329C83.0479 70.4648 80.7242 82.0928 77.3084 90.2558C74.2666 97.5256 59.2612 104.777 57.0499 110.621C57.3101 122.462 57.5429 137.462 57.7077 151.427C58.8909 144.213 58.0774 143.608 62.925 132.563C65.8069 125.998 77.6221 117.9 79.0315 122.412C80.4141 126.839 78.2989 135.449 73.8386 141.421C70.2404 146.238 62.2568 146.233 60.4091 149.221C59.978 149.919 58.5528 152.592 57.7387 154.129C57.9315 171.179 58.0178 186.23 57.9223 191.361L57.1477 191.413C57.1848 190.088 57.0912 181.414 56.9392 169.937C55.0009 163.829 41.9496 160.264 37.9179 153.913C33.7002 147.267 30.6681 139.51 32.4775 134.316Z"
    fill="#BBBBBB"/>
  <path
    access="denied"
    d="M44.7494 199.087H69.799C71.1676 199.087 72.3471 198.123 72.6189 196.782L74.3973 188.015H40.1511L41.9295 196.782C42.2013 198.123 43.3808 199.087 44.7494 199.087Z"
    fill="var(--organizo-primary)"/>
  <path
    access="denied"
    d="M39.4349 191.414H75.1135C75.9684 191.414 76.687 190.772 76.7825 189.922L77.5121 183.44C77.624 182.444 76.8451 181.573 75.8431 181.573H38.7053C37.7033 181.573 36.9238 182.444 37.0363 183.44L37.7659 189.922C37.8614 190.772 38.58 191.414 39.4349 191.414Z"
    fill="var(--organizo-primary)"/>
  <path d="M108.127 159.702H86.7209V199.088H108.127V159.702Z" fill="#808080"/>
  <path d="M162.688 199.087H91.0085L83.479 145.646H155.159L162.688 199.087Z" fill="#BBBBBB"/>
  <path access="denied" d="M173.145 199.087H93.857L86.3275 145.646H165.616L173.145 199.087Z"
        fill="var(--organizo-primary)"/>
  <path d="M101.618 190.733L95.2754 154H157.854L164.197 190.733H101.618Z" fill="white"/>
  <path d="M128.507 190.733L107.236 154H113.909L135.18 190.733H128.507Z" fill="#FAFAFA"/>
  <path d="M138.009 190.733L116.738 154H128.117L149.388 190.733H138.009Z" fill="#FAFAFA"/>
  <path
    d="M152 226.546C217.106 226.546 269.885 223.464 269.885 219.662C269.885 215.86 217.106 212.778 152 212.778C86.8942 212.778 34.1155 215.86 34.1155 219.662C34.1155 223.464 86.8942 226.546 152 226.546Z"
    fill="#FAFAFA"/>
  <path
    access="denied"
    d="M46.9777 101.279C46.844 101.279 46.7315 101.177 46.7199 101.042L45.369 84.8069C45.3568 84.6646 45.4626 84.54 45.6055 84.5278C45.7392 84.5175 45.8724 84.6214 45.8845 84.7643L47.2355 100.999C47.2477 101.141 47.1419 101.266 46.999 101.278C46.9917 101.279 46.985 101.279 46.9777 101.279Z"
    fill="var(--organizo-primary)"/>
  <path
    access="denied"
    d="M47.7797 110.922C47.6459 110.922 47.5334 110.82 47.5219 110.685L47.1127 105.77C47.1005 105.628 47.2063 105.503 47.3492 105.491C47.486 105.473 47.6167 105.584 47.6283 105.728L48.0375 110.642C48.0496 110.784 47.9438 110.909 47.801 110.921C47.7943 110.922 47.787 110.922 47.7797 110.922Z"
    fill="var(--organizo-primary)"/>
  <path
    d="M184.561 157.119H59.0252C55.8223 157.119 52.9836 154.498 52.7166 151.295L45.6468 66.3127C45.3805 63.1098 47.7827 60.4887 50.9863 60.4887H176.522C179.725 60.4887 182.564 63.1092 182.831 66.3127L189.902 151.295C190.168 154.498 187.765 157.119 184.561 157.119Z"
    fill="white"/>
  <path
    access="denied"
    d="M184.561 157.361H59.0251C55.6909 157.361 52.7524 154.649 52.4752 151.315L45.4053 66.3334C45.2697 64.7119 45.7811 63.1827 46.8433 62.0282C47.9006 60.879 49.3719 60.2461 50.9862 60.2461H176.523C179.857 60.2461 182.795 62.959 183.072 66.2927L190.143 151.274C190.278 152.896 189.767 154.424 188.705 155.578C187.647 156.728 186.176 157.361 184.561 157.361ZM50.9862 60.7319C49.5093 60.7319 48.165 61.3089 47.2008 62.3571C46.231 63.4101 45.7653 64.8079 45.8887 66.2933L52.9585 151.275C53.2157 154.363 55.9371 156.876 59.0257 156.876H184.562C186.039 156.876 187.384 156.299 188.349 155.25C189.318 154.197 189.783 152.8 189.66 151.315L182.59 66.3334C182.332 63.2448 179.612 60.7319 176.524 60.7319H50.9862Z"
    fill="var(--organizo-primary)"/>
  <path
    access="denied"
    d="M176.522 60.4887H50.9863C47.7827 60.4887 45.3805 63.1098 45.6468 66.3127H182.831C182.564 63.1092 179.725 60.4887 176.522 60.4887Z"
    fill="var(--organizo-primary)"/>
  <path
    d="M53.9247 63.401C53.9825 64.0947 53.4669 64.6572 52.7732 64.6572C52.0795 64.6572 51.4702 64.0947 51.4125 63.401C51.3547 62.7073 51.8703 62.1449 52.564 62.1449C53.2578 62.1449 53.867 62.7073 53.9247 63.401Z"
    fill="white"/>
  <path
    d="M59.0319 63.401C59.0897 64.0947 58.5741 64.6572 57.8804 64.6572C57.1867 64.6572 56.578 64.0947 56.5203 63.401C56.4625 62.7073 56.9781 62.1449 57.6718 62.1449C58.3656 62.1449 58.9742 62.7073 59.0319 63.401Z"
    fill="white"/>
  <path
    d="M64.1391 63.401C64.1969 64.0947 63.6813 64.6572 62.9876 64.6572C62.2939 64.6572 61.6846 64.0947 61.6275 63.401C61.5697 62.7073 62.0853 62.1449 62.779 62.1449C63.4728 62.1449 64.0814 62.7073 64.1391 63.401Z"
    fill="white"/>
  <path
    access="denied"
    d="M173.667 145.982H68.0668C65.5205 145.982 63.2642 143.899 63.052 141.353L58.1205 82.0794C57.909 79.5331 59.8187 77.4501 62.365 77.4501H167.965C170.511 77.4501 172.767 79.5331 172.98 82.0794L177.911 141.353C178.123 143.899 176.214 145.982 173.667 145.982Z"
    fill="var(--organizo-primary)"/>
  <path
    d="M141.009 87.8286L108.294 127.217C103.806 132.62 106.649 140.857 113.514 142.341L166.576 153.817C173.904 155.402 180.027 148.157 177.242 141.196L156.896 90.3318C154.261 83.7453 145.542 82.3718 141.009 87.8286Z"
    fill="#BBBBBB"/>
  <path
    d="M68.1939 93.3511L56.7994 124.034C55.2788 128.129 58.5711 132.402 62.9177 131.976L96.1929 128.712C100.859 128.255 103.161 122.807 100.237 119.142L78.3566 91.7217C75.4881 88.1278 69.7947 89.0404 68.1939 93.3511Z"
    fill="#BBBBBB"/>
  <path
    access="denied"
    d="M152.294 77.9115L121.711 122.318C117.545 128.367 121.236 136.682 128.516 137.651L184.735 145.133C192.538 146.171 198.34 138.08 194.853 131.022L169.217 79.1336C165.892 72.4019 156.554 71.727 152.294 77.9115Z"
    fill="var(--organizo-primary)"/>
  <path
    d="M129.851 133.67C127.806 133.398 126.029 132.109 125.097 130.222C124.165 128.335 124.272 126.245 125.384 124.629L156.044 80.1107C157.156 78.4964 159.041 77.6945 161.085 77.9663C163.129 78.2387 164.907 79.5276 165.839 81.4142L191.539 133.434C192.472 135.321 192.364 137.411 191.251 139.027C190.139 140.641 188.254 141.443 186.21 141.171L129.851 133.67Z"
    fill="white"/>
  <path
    access="denied"
    d="M158.474 93.7031L162.054 94.1798C164.357 94.4862 166.129 96.5808 166.012 98.8578L165.772 103.528C165.763 103.7 165.743 103.869 165.713 104.036L163.166 118.111C162.799 120.14 160.945 121.452 158.843 121.172C156.736 120.892 155.04 119.101 154.89 116.998L153.857 102.452C153.845 102.284 153.844 102.115 153.853 101.948L154.093 97.2721C154.21 94.9945 156.171 93.3967 158.474 93.7031ZM158.188 125.052L159.165 125.182C161.225 125.456 162.809 127.329 162.704 129.366C162.6 131.403 160.845 132.832 158.785 132.558L157.809 132.428C155.749 132.154 154.164 130.28 154.269 128.244C154.374 126.207 156.129 124.777 158.188 125.052Z"
    fill="var(--organizo-primary)"/>
  <path
    access="denied"
    d="M79.955 84.6993L71.558 116.543C70.4459 120.759 74.1262 124.687 78.4059 123.851L110.978 117.496C115.555 116.603 117.343 111.01 114.134 107.626L89.9603 82.1384C86.7732 78.7786 81.1358 80.2213 79.955 84.6993Z"
    fill="var(--organizo-primary)"/>
  <path
    d="M78.3438 121.272C77.1594 121.503 75.927 121.088 75.0485 120.161C74.1693 119.234 73.8264 117.99 74.1322 116.831L82.5506 84.9078C82.8558 83.7502 83.7453 82.9209 84.9303 82.6898C86.1147 82.4588 87.3471 82.8741 88.2257 83.8006L112.461 109.353C113.34 110.28 113.683 111.525 113.377 112.683C113.072 113.841 112.183 114.67 110.998 114.901L78.3438 121.272Z"
    fill="white"/>
  <path
    access="denied"
    d="M86.5093 92.4026L88.5838 91.9977C89.9177 91.7375 91.3021 92.6258 91.6749 93.981L92.4403 96.7614C92.4683 96.8635 92.4902 96.9663 92.5054 97.0696L93.801 105.798C93.9877 107.056 93.2137 108.178 91.9959 108.416C90.775 108.654 89.4915 107.929 89.0045 106.726L85.635 98.406C85.5961 98.3093 85.5626 98.2115 85.5353 98.1117L84.7692 95.3277C84.3965 93.9731 85.1753 92.6628 86.5093 92.4026ZM92.3795 110.814L92.9456 110.703C94.1391 110.471 95.377 111.265 95.7108 112.478C96.0445 113.691 95.3478 114.862 94.1543 115.095L93.5888 115.206C92.3953 115.439 91.1574 114.644 90.8236 113.432C90.4893 112.219 91.186 111.047 92.3795 110.814Z"
    fill="var(--organizo-primary)"/>
</svg>
